<?xml version="1.0" standalone="no"?>
<!DOCTYPE svg PUBLIC "-//W3C//DTD SVG 20010904//EN"
 "http://www.w3.org/TR/2001/REC-SVG-20010904/DTD/svg10.dtd">
<svg version="1.0" xmlns="http://www.w3.org/2000/svg"
 width="220.000000pt" height="216.000000pt" viewBox="0 0 220.000000 216.000000"
 preserveAspectRatio="xMidYMid meet">

<g transform="translate(0.000000,216.000000) scale(0.100000,-0.100000)"
fill="#000000" stroke="none">
<path d="M1004 2137 c-3 -8 -4 -47 -2 -88 2 -58 6 -74 18 -74 8 0 16 10 18 23
5 31 39 29 74 -5 21 -20 31 -24 40 -15 9 9 7 16 -7 32 -14 16 -16 23 -7 32 21
21 14 75 -10 92 -28 20 -116 22 -124 3z m112 -42 c9 -23 -15 -45 -47 -45 -26
0 -29 4 -29 30 0 28 3 30 35 30 23 0 38 -6 41 -15z"/>
<path d="M829 2101 c-40 -40 -39 -82 1 -123 27 -26 36 -30 68 -25 41 7 79 44
63 60 -7 7 -17 5 -29 -6 -28 -25 -69 -22 -88 8 -15 23 -15 27 1 51 13 21 23
25 52 22 38 -3 57 17 32 33 -28 18 -70 9 -100 -20z"/>
<path d="M1227 2110 c-50 -39 -42 -117 15 -146 59 -30 128 14 128 80 -1 72
-85 111 -143 66z m73 -20 c11 -6 24 -20 30 -31 15 -28 -11 -69 -45 -69 -52 0
-75 65 -33 94 27 19 24 19 48 6z"/>
<path d="M1415 2009 c-27 -80 -27 -96 -3 -86 16 6 62 143 53 157 -14 22 -25 7
-50 -71z"/>
<path d="M548 2007 c-32 -18 -58 -38 -58 -45 0 -21 70 -142 82 -142 14 0 116
59 123 71 14 22 -28 19 -69 -5 -24 -14 -46 -22 -50 -19 -14 14 -4 29 29 47 36
20 47 46 20 46 -9 0 -27 -7 -40 -16 -24 -15 -55 -14 -55 3 0 4 22 21 50 36 33
19 47 32 43 42 -7 20 -9 19 -75 -18z"/>
<path d="M1517 2022 c-33 -36 -19 -66 49 -108 15 -9 16 -15 7 -24 -8 -9 -21
-6 -56 14 -37 22 -46 24 -56 12 -9 -11 -3 -19 33 -40 56 -33 91 -34 111 -2 21
31 9 56 -41 85 -28 17 -34 25 -25 34 8 8 22 5 57 -11 43 -21 64 -22 64 -2 0
11 -93 60 -113 60 -8 0 -21 -8 -30 -18z"/>
<path d="M1680 1909 c-16 -29 -5 -63 25 -83 25 -17 34 -46 14 -46 -6 0 -29 14
-51 31 -31 25 -42 29 -51 20 -9 -10 -3 -20 28 -47 52 -44 70 -49 100 -30 34
23 32 58 -5 89 -28 24 -41 57 -22 57 4 0 27 -14 50 -31 37 -27 62 -31 62 -11
0 4 -19 22 -42 40 -49 38 -92 42 -108 11z"/>
<path d="M990 1870 c-89 -12 -223 -55 -290 -92 -152 -85 -279 -216 -350 -363
-68 -140 -84 -213 -84 -365 -1 -152 14 -215 85 -359 46 -92 63 -116 153 -206
80 -80 118 -109 181 -142 272 -138 540 -138 810 1 105 54 251 196 312 306 179
321 137 681 -111 957 -170 188 -459 296 -706 263z m80 -171 c0 -109 2 -120 18
-117 15 3 17 14 14 88 -2 47 0 100 3 118 5 30 9 32 46 32 l39 0 -2 -41 c-4
-51 17 -64 27 -17 4 18 9 36 11 40 4 6 62 -6 70 -15 2 -2 -3 -22 -12 -45 -19
-46 -13 -82 10 -63 7 6 19 32 26 56 7 25 16 45 20 45 14 0 80 -30 80 -37 0 -3
-18 -39 -40 -80 -37 -67 -43 -93 -20 -93 4 0 27 34 49 75 23 41 47 75 54 75
10 0 40 -17 66 -36 2 -2 -11 -21 -29 -44 -21 -27 -30 -46 -25 -58 6 -14 13
-10 45 26 21 23 42 42 46 42 5 -1 20 -10 33 -21 l24 -20 -46 -47 c-26 -26 -47
-51 -47 -55 0 -19 40 -3 70 28 39 40 50 43 74 16 17 -19 16 -21 -38 -63 -52
-40 -71 -68 -46 -68 6 0 34 16 63 35 61 42 74 43 89 10 9 -21 8 -27 -12 -43
-27 -22 -19 -48 10 -32 29 15 38 12 54 -17 19 -38 56 -152 56 -175 0 -15 -8
-18 -55 -18 -30 0 -55 5 -55 10 0 6 -9 10 -20 10 -11 0 -20 -4 -20 -10 0 -5
-7 -10 -15 -10 -8 0 -15 5 -15 10 0 6 -9 10 -20 10 -11 0 -20 -4 -20 -10 0 -5
-20 -10 -45 -10 -43 0 -45 -1 -45 -30 0 -30 -21 -42 -35 -20 -4 6 -17 4 -35
-5 -21 -11 -63 -15 -154 -15 l-125 0 1 39 c1 53 -18 103 -47 131 -14 13 -25
31 -25 41 0 10 -4 21 -10 24 -5 3 -10 18 -10 31 0 16 -5 24 -12 21 -7 -2 -13
-11 -13 -20 0 -8 -4 -19 -8 -23 -4 -4 -7 -15 -7 -23 0 -9 -14 -33 -30 -53 -30
-37 -52 -112 -43 -147 3 -14 -3 -20 -24 -24 -46 -9 -226 5 -255 19 -15 8 -42
14 -61 14 -41 0 -54 22 -32 53 8 12 15 31 15 44 0 21 1 22 35 7 34 -14 55 -12
55 5 0 12 -77 44 -89 37 -14 -9 -14 19 0 46 6 11 24 32 40 46 32 29 46 82 35
128 -6 24 -10 26 -44 21 -38 -6 -92 -56 -92 -86 0 -25 -32 -51 -63 -51 -40 0
-92 -53 -101 -105 -4 -21 -16 -45 -26 -52 -29 -20 -43 -75 -31 -119 7 -26 7
-43 -1 -57 -6 -12 -8 -43 -5 -76 4 -31 2 -62 -2 -69 -27 -45 -40 163 -17 277
19 92 63 211 78 211 5 0 19 -5 30 -11 16 -9 23 -8 29 2 8 13 -8 33 -33 41 -14
5 13 58 30 58 7 0 27 -10 44 -21 22 -16 32 -19 41 -10 8 8 2 19 -26 42 l-38
31 22 24 c20 22 24 22 39 9 9 -8 22 -15 28 -15 15 0 16 26 2 35 -18 11 -11 34
16 51 25 17 26 16 69 -26 36 -35 45 -40 51 -27 3 10 -7 31 -28 57 -32 41 -32
42 -13 57 47 34 53 35 72 3 28 -48 47 -29 29 28 -6 19 -2 25 29 38 20 8 40 12
44 10 5 -3 14 -26 21 -51 9 -33 18 -45 31 -45 23 0 22 -5 3 59 -8 29 -14 54
-12 56 2 1 17 6 35 9 31 7 32 6 38 -31 11 -61 16 -74 28 -70 8 3 11 24 9 61
l-3 56 40 0 41 0 0 -121z m-420 -274 c-7 -8 -16 -12 -21 -9 -14 9 -10 36 9 57
17 19 17 19 20 -7 2 -15 -2 -34 -8 -41z m-65 -84 c-8 -17 -20 -31 -25 -31 -18
0 -10 40 12 62 27 27 35 10 13 -31z m-85 -39 c0 -35 -5 -54 -18 -65 -10 -10
-22 -14 -25 -10 -20 19 8 123 33 123 6 0 10 -22 10 -48z m90 -61 c0 -14 -49
-58 -70 -64 -23 -6 -24 -3 -10 23 15 29 80 62 80 41z m-166 -57 c10 -27 7 -61
-8 -73 -16 -14 -26 4 -26 48 0 41 22 57 34 25z m644 -47 c2 -19 -1 -27 -12
-27 -11 0 -16 10 -16 31 0 38 24 35 28 -4z m70 0 c2 -19 -1 -27 -12 -27 -11 0
-16 10 -16 31 0 38 24 35 28 -4z m-598 -32 c-38 -28 -68 -40 -78 -30 -13 13
49 55 81 55 l31 0 -34 -25z m1090 10 c0 -8 -7 -15 -15 -15 -8 0 -15 7 -15 15
0 8 7 15 15 15 8 0 15 -7 15 -15z m70 0 c0 -8 -7 -15 -15 -15 -8 0 -15 7 -15
15 0 8 7 15 15 15 8 0 15 -7 15 -15z m70 -1 c0 -9 -5 -14 -12 -12 -18 6 -21
28 -4 28 9 0 16 -7 16 -16z m70 0 c0 -17 -22 -14 -28 4 -2 7 3 12 12 12 9 0
16 -7 16 -16z m-1157 -33 c13 -5 45 -28 71 -50 47 -40 48 -41 125 -41 72 0 81
2 116 30 65 52 120 51 186 -1 34 -27 44 -29 119 -29 75 0 87 3 144 35 71 40
96 44 96 16 0 -13 -11 -23 -36 -31 -20 -7 -40 -22 -46 -36 -10 -21 -18 -24
-60 -24 -36 0 -48 -4 -48 -15 0 -23 91 -20 140 5 27 14 59 20 105 20 49 0 67
4 71 15 4 8 12 15 20 15 8 0 14 -7 14 -15 0 -8 -6 -15 -14 -15 -8 0 -28 -11
-44 -25 -17 -14 -43 -25 -58 -25 -64 0 -134 -13 -134 -25 0 -12 64 -25 127
-25 18 0 57 12 86 27 39 21 67 27 114 28 66 0 79 -5 70 -30 -5 -11 -21 -15
-57 -15 -28 0 -67 -8 -88 -17 -20 -10 -55 -20 -77 -23 -26 -3 -40 -10 -40 -20
0 -22 77 -25 129 -5 56 22 101 17 101 -10 0 -14 -8 -21 -28 -23 -35 -4 -47
-30 -22 -48 17 -12 16 -15 -9 -59 -15 -25 -29 -45 -31 -45 -3 0 -11 13 -19 28
-8 15 -27 34 -42 42 -16 8 -43 32 -62 52 -22 25 -46 40 -70 44 -21 4 -50 17
-67 30 -16 12 -43 26 -59 30 -16 4 -42 22 -59 40 -40 46 -111 67 -177 53 -38
-8 -58 -7 -99 7 -64 21 -128 14 -186 -21 -37 -21 -50 -23 -113 -18 -60 5 -77
3 -112 -16 -22 -11 -57 -21 -78 -21 -20 0 -50 -7 -65 -15 -35 -18 -118 -29
-135 -17 -26 17 -2 42 41 42 23 0 59 6 82 14 22 8 75 18 118 21 97 8 100 29 6
33 -75 4 -87 11 -59 37 20 19 23 19 68 3 39 -14 49 -15 60 -4 11 11 11 16 -3
29 -15 15 -75 37 -102 37 -19 0 -27 21 -12 31 18 11 71 11 102 0z m207 -32 c0
-5 -7 -9 -15 -9 -15 0 -20 12 -9 23 8 8 24 -1 24 -14z m68 3 c2 -7 -5 -12 -17
-12 -14 0 -19 5 -14 15 6 17 25 15 31 -3z m290 0 c2 -7 -5 -12 -17 -12 -14 0
-19 5 -14 15 6 17 25 15 31 -3z m62 -3 c0 -5 -7 -9 -15 -9 -15 0 -20 12 -9 23
8 8 24 -1 24 -14z m-490 1 c0 -5 -4 -10 -9 -10 -6 0 -13 5 -16 10 -3 6 1 10 9
10 9 0 16 -4 16 -10z m565 0 c-3 -5 -13 -10 -21 -10 -8 0 -14 5 -14 10 0 6 9
10 21 10 11 0 17 -4 14 -10z m243 -1 c-2 -6 -8 -10 -13 -10 -5 0 -11 4 -13 10
-2 6 4 11 13 11 9 0 15 -5 13 -11z m70 -1 c-6 -18 -28 -21 -28 -4 0 9 7 16 16
16 9 0 14 -5 12 -12z m72 -4 c0 -9 -5 -14 -12 -12 -18 6 -21 28 -4 28 9 0 16
-7 16 -16z m70 0 c0 -17 -22 -14 -28 4 -2 7 3 12 12 12 9 0 16 -7 16 -16z
m-1309 -33 c-12 -21 -68 -71 -81 -71 -5 0 -15 -3 -24 -6 -29 -11 -18 26 18 62
24 24 43 34 65 34 28 0 31 -2 22 -19z m1239 -31 c0 -5 -7 -10 -15 -10 -8 0
-15 5 -15 10 0 6 7 10 15 10 8 0 15 -4 15 -10z m70 -6 c0 -17 -22 -14 -28 4
-2 7 3 12 12 12 9 0 16 -7 16 -16z m-772 -79 c3 -2 -14 -25 -37 -50 -23 -25
-49 -61 -58 -80 -9 -19 -23 -35 -30 -35 -27 0 -56 -90 -61 -182 -2 -49 -8 -88
-13 -88 -5 0 -9 5 -9 10 0 6 -13 10 -28 10 -45 0 -82 46 -82 103 0 76 20 145
58 202 62 90 130 129 211 120 25 -3 47 -7 49 -10z m197 -9 c35 -15 47 -36 21
-36 -20 0 -101 -83 -116 -119 -7 -17 -19 -31 -27 -31 -37 0 -62 -165 -39 -262
7 -32 6 -38 -8 -38 -9 0 -16 4 -16 9 0 5 -15 12 -34 15 -19 4 -45 15 -58 25
-20 17 -23 27 -21 83 4 155 105 326 210 358 41 12 50 12 88 -4z m-475 -30 c0
-3 -14 -26 -31 -51 -39 -58 -69 -151 -69 -216 0 -55 -6 -58 -63 -34 -42 17
-57 40 -57 87 0 116 83 218 176 218 24 0 44 -2 44 -4z m-241 -76 c-12 -22 -26
-61 -33 -86 l-11 -45 -27 28 c-27 28 -27 29 -10 63 15 31 72 80 93 80 5 0 -1
-18 -12 -40z m852 20 c18 -10 15 -15 -34 -63 -67 -65 -92 -131 -84 -219 l5
-60 -30 6 c-17 3 -36 6 -44 6 -28 0 -44 30 -38 73 15 111 52 197 103 245 26
24 87 30 122 12z m-986 -40 c-14 -27 -35 -41 -35 -22 0 4 -3 17 -6 30 -6 19
-3 22 25 22 l32 0 -16 -30z m1115 -15 c36 -19 38 -32 6 -45 -57 -21 -97 -114
-79 -183 13 -48 9 -61 -15 -47 -9 6 -29 14 -44 20 -38 13 -44 48 -23 127 13
47 28 76 55 104 41 43 56 47 100 24z m122 -106 c17 -17 27 -34 22 -38 -20 -18
-123 -53 -139 -47 -13 5 -15 13 -9 38 18 83 71 103 126 47z"/>
<path d="M890 1631 c0 -21 13 -41 26 -41 8 0 14 10 14 25 0 18 -5 25 -20 25
-11 0 -20 -4 -20 -9z"/>
<path d="M1245 1619 c-8 -25 -1 -34 20 -26 19 8 20 47 1 47 -8 0 -18 -9 -21
-21z"/>
<path d="M1070 1500 c0 -43 23 -57 35 -20 9 27 -3 60 -21 60 -10 0 -14 -12
-14 -40z"/>
<path d="M1482 1464 c-24 -17 -30 -44 -9 -44 17 0 59 44 50 53 -9 10 -16 9
-41 -9z"/>
<path d="M956 1461 c-10 -15 12 -61 29 -61 18 0 19 9 5 44 -10 26 -24 33 -34
17z"/>
<path d="M1192 1458 c-7 -7 -12 -22 -12 -35 0 -32 28 -30 36 3 8 30 -7 49 -24
32z"/>
<path d="M840 1447 c0 -21 50 -87 65 -87 22 0 18 20 -10 63 -25 36 -55 50 -55
24z"/>
<path d="M1275 1417 c-30 -52 -30 -57 -7 -57 18 0 74 78 66 92 -12 19 -35 5
-59 -35z"/>
<path d="M785 1410 c-7 -12 2 -30 16 -30 12 0 12 27 0 35 -5 3 -12 1 -16 -5z"/>
<path d="M1357 1414 c-13 -13 -7 -24 14 -24 11 0 19 5 17 12 -5 14 -22 21 -31
12z"/>
<path d="M690 1370 c0 -11 114 -90 129 -90 26 0 7 33 -36 65 -46 33 -93 46
-93 25z"/>
<path d="M1389 1348 c-52 -37 -62 -49 -49 -62 11 -11 121 61 128 82 7 23 -35
12 -79 -20z"/>
<path d="M1558 1340 c-42 -23 -53 -36 -37 -46 15 -9 109 36 109 53 0 18 -29
16 -72 -7z"/>
<path d="M1683 1300 c-23 -9 -30 -25 -15 -33 15 -8 72 14 72 28 0 17 -23 18
-57 5z"/>
<path d="M1172 867 c-17 -10 -20 -15 -10 -25 7 -7 18 -12 25 -12 24 0 74 30
68 40 -9 14 -56 12 -83 -3z"/>
<path d="M1315 791 c-10 -17 28 -30 47 -17 10 7 15 16 11 19 -10 10 -51 8 -58
-2z"/>
<path d="M1470 731 c0 -12 29 -23 41 -15 18 10 9 24 -16 24 -14 0 -25 -4 -25
-9z"/>
<path d="M342 1845 c5 -22 91 -124 105 -125 15 0 93 68 93 81 0 18 -35 8 -61
-17 l-27 -25 -42 50 c-42 49 -75 67 -68 36z"/>
<path d="M1830 1742 c-36 -10 -71 -21 -78 -25 -17 -11 -5 -27 21 -27 11 0 33
-12 48 -26 22 -21 27 -33 22 -55 -4 -22 -2 -29 9 -29 13 0 70 116 80 161 4 19
-28 19 -102 1z m45 -52 c-5 -17 -10 -19 -21 -9 -19 15 -18 27 4 31 23 6 25 3
17 -22z"/>
<path d="M215 1709 c-4 -6 -5 -12 -4 -14 25 -23 125 -95 134 -95 6 0 26 21 45
46 25 35 30 48 20 57 -9 9 -18 3 -41 -25 l-30 -37 -51 39 c-53 42 -63 46 -73
29z"/>
<path d="M130 1580 c-17 -34 -28 -65 -25 -71 4 -5 37 -25 75 -44 77 -39 73
-40 114 42 31 62 31 63 8 63 -11 0 -26 -16 -40 -45 -12 -25 -26 -45 -31 -45
-19 0 -21 19 -4 54 12 27 14 39 6 47 -9 9 -17 3 -32 -22 -12 -19 -23 -38 -25
-44 -2 -6 -9 -5 -17 2 -11 11 -9 21 9 58 26 54 27 65 7 65 -8 0 -28 -27 -45
-60z"/>
<path d="M1935 1585 c-33 -19 -61 -38 -63 -43 -7 -21 19 -22 59 -1 47 24 47
27 12 -63 -9 -26 -14 -50 -10 -54 9 -10 157 62 157 75 0 21 -21 21 -59 1 -22
-11 -42 -20 -45 -20 -3 0 6 25 20 55 42 96 29 105 -71 50z"/>
<path d="M2092 1398 c3 -30 1 -32 -57 -48 -39 -11 -61 -22 -63 -33 -4 -21 9
-21 72 -2 64 19 65 19 76 -10 10 -25 24 -32 34 -17 10 17 -34 142 -50 142 -11
0 -14 -9 -12 -32z"/>
<path d="M156 1413 c-3 -4 -24 -6 -44 -5 -46 3 -67 -17 -77 -70 l-7 -37 70
-20 c93 -28 97 -27 110 18 18 58 15 99 -7 111 -23 12 -35 13 -45 3z m-46 -58
c0 -24 -24 -44 -37 -31 -9 8 14 56 27 56 5 0 10 -11 10 -25z m75 -7 c-4 -18
-9 -36 -12 -40 -8 -14 -33 -8 -33 6 0 29 20 66 36 66 12 0 14 -6 9 -32z"/>
<path d="M1968 1118 c-20 -17 -32 -96 -17 -114 6 -8 28 -14 49 -14 49 0 62 17
54 71 -7 45 -25 69 -54 69 -9 0 -23 -6 -32 -12z m57 -33 c0 -5 -10 -11 -22
-13 -16 -2 -23 2 -23 13 0 11 7 15 23 13 12 -2 22 -7 22 -13z m3 -57 c-3 -7
-15 -13 -28 -13 -13 0 -25 6 -27 13 -3 8 6 12 27 12 21 0 30 -4 28 -12z"/>
<path d="M2098 1119 c-24 -13 -23 -56 1 -69 11 -5 32 -10 46 -10 41 0 25 -24
-18 -28 -21 -2 -35 -7 -32 -13 9 -13 79 -11 93 3 18 18 15 94 -4 112 -17 18
-60 20 -86 5z m72 -34 c0 -10 -10 -15 -30 -15 -20 0 -30 5 -30 15 0 10 10 15
30 15 20 0 30 -5 30 -15z"/>
<path d="M36 1101 c-4 -5 -2 -12 4 -16 5 -3 10 -31 10 -61 0 -42 3 -54 15 -54
24 0 17 133 -7 138 -9 2 -19 -1 -22 -7z"/>
<path d="M123 1098 c-22 -29 -23 -38 -3 -58 11 -11 33 -20 50 -20 17 0 30 -4
30 -9 0 -11 -25 -21 -56 -21 -13 0 -24 -5 -24 -11 0 -6 19 -9 48 -7 l47 3 3
55 c3 43 -1 57 -14 67 -23 17 -69 17 -81 1z m75 -35 c2 -9 -7 -13 -27 -13 -30
0 -46 11 -34 24 11 11 56 2 61 -11z"/>
<path d="M1652 384 c-44 -37 -51 -58 -29 -88 18 -25 60 -23 93 3 55 44 63 8 8
-38 -25 -20 -35 -35 -30 -46 5 -15 9 -15 33 3 71 51 84 74 63 113 -14 25 -60
25 -93 -1 -14 -11 -30 -20 -36 -20 -24 0 -9 30 29 60 38 30 44 50 16 50 -7 0
-31 -16 -54 -36z"/>
<path d="M419 339 l-53 -61 42 -39 c41 -38 72 -50 72 -27 0 6 -15 24 -32 39
l-33 27 43 50 c23 28 42 55 42 61 0 26 -32 6 -81 -50z"/>
<path d="M557 323 c-4 -4 -4 -28 -1 -55 4 -30 2 -59 -6 -78 -18 -43 1 -63 25
-26 10 14 39 38 66 53 49 26 65 53 32 53 -10 0 -27 -7 -37 -15 -35 -26 -46
-19 -46 30 0 43 -14 58 -33 38z"/>
<path d="M1520 294 c0 -3 17 -37 38 -75 24 -45 43 -69 55 -69 23 0 23 2 -20
81 -25 45 -44 69 -55 69 -10 0 -18 -3 -18 -6z"/>
<path d="M1387 233 c-12 -20 -19 -181 -8 -187 6 -4 15 3 21 18 13 34 73 60
100 43 14 -8 23 -8 30 -1 8 8 -8 28 -57 73 -68 61 -78 67 -86 54z m63 -84 c0
-6 -25 -19 -36 -19 -2 0 -4 11 -4 25 0 23 2 24 20 13 11 -7 20 -16 20 -19z"/>
<path d="M740 218 c-28 -15 -50 -52 -50 -86 0 -35 52 -82 90 -82 42 0 90 47
90 89 0 62 -75 107 -130 79z m78 -40 c7 -7 12 -24 12 -38 0 -33 -17 -50 -50
-50 -33 0 -50 17 -50 50 0 33 17 50 50 50 14 0 31 -5 38 -12z"/>
<path d="M1255 190 c-3 -6 -3 -31 1 -58 l6 -47 -49 48 c-45 43 -83 61 -83 37
0 -5 5 -43 11 -85 8 -54 15 -75 26 -75 12 0 14 11 11 50 -1 28 -1 50 2 50 3 0
26 -20 50 -45 65 -66 74 -61 66 30 -4 42 -9 82 -13 90 -6 17 -19 19 -28 5z"/>
<path d="M927 183 c-3 -5 -6 -44 -8 -88 -3 -66 -1 -80 11 -80 11 0 16 13 18
47 2 27 6 48 10 48 4 0 24 -25 45 -56 22 -30 44 -53 50 -51 13 4 31 142 22
165 -11 28 -30 3 -35 -44 l-5 -49 -43 58 c-41 55 -56 66 -65 50z"/>
</g>
</svg>
