<?xml version="1.0" standalone="no"?>
<!DOCTYPE svg PUBLIC "-//W3C//DTD SVG 20010904//EN"
 "http://www.w3.org/TR/2001/REC-SVG-20010904/DTD/svg10.dtd">
<svg version="1.0" xmlns="http://www.w3.org/2000/svg"
 width="25.000000pt" height="25.000000pt" viewBox="0 0 25.000000 25.000000"
 preserveAspectRatio="xMidYMid meet">

<g transform="translate(0.000000,25.000000) scale(0.100000,-0.100000)"
fill="#000000" stroke="none">
<path d="M118 213 c7 -3 16 -2 19 1 4 3 -2 6 -13 5 -11 0 -14 -3 -6 -6z"/>
<path d="M72 203 c-7 -2 -17 -14 -23 -25 -9 -16 -8 -19 3 -13 7 3 5 0 -4 -8
-45 -36 7 -127 72 -127 45 0 67 15 90 60 23 45 16 54 -34 45 -27 -6 -36 -3
-44 12 -10 17 -11 17 -17 1 -4 -10 -14 -18 -23 -18 -13 0 -13 -3 2 -19 14 -16
15 -23 6 -38 -10 -16 -11 -15 -6 7 5 24 4 24 -9 6 -13 -17 -15 -18 -15 -3 0 9
5 17 12 17 9 0 9 3 0 12 -14 14 -16 52 -2 43 6 -3 7 1 4 9 -3 9 -10 13 -15 10
-5 -3 -9 -1 -9 4 0 5 10 14 23 20 22 11 14 15 -11 5z m65 -89 c-3 -3 -12 -4
-19 -1 -8 3 -5 6 6 6 11 1 17 -2 13 -5z m57 -35 c-6 -10 -42 23 -36 34 2 5 12
1 23 -9 10 -9 16 -20 13 -25z m-47 -5 c3 -18 2 -18 -6 1 -8 19 -8 19 -15 -3
-4 -13 -10 -21 -13 -19 -3 3 -2 15 2 27 8 25 29 21 32 -6z"/>
<path d="M178 182 c15 -15 29 -26 31 -25 6 4 -41 53 -50 53 -4 0 4 -13 19 -28z"/>
</g>
</svg>
