<?xml version="1.0" standalone="no"?>
<!DOCTYPE svg PUBLIC "-//W3C//DTD SVG 20010904//EN"
 "http://www.w3.org/TR/2001/REC-SVG-20010904/DTD/svg10.dtd">
<svg version="1.0" xmlns="http://www.w3.org/2000/svg"
 width="50.000000pt" height="49.000000pt" viewBox="0 0 50.000000 49.000000"
 preserveAspectRatio="xMidYMid meet">

<g transform="translate(0.000000,49.000000) scale(0.100000,-0.100000)"
fill="#000000" stroke="none">
<path d="M236 483 c6 -4 14 -15 17 -23 5 -11 6 -9 4 4 -1 11 -9 21 -17 23 -10
3 -11 2 -4 -4z"/>
<path d="M184 469 c-11 -18 14 -35 29 -20 10 10 8 11 -7 5 -16 -6 -18 -4 -13
9 7 19 2 23 -9 6z"/>
<path d="M275 469 c-4 -6 -5 -12 -2 -15 2 -3 7 2 10 11 7 17 1 20 -8 4z"/>
<path d="M297 461 c-4 -17 -3 -21 5 -13 5 5 8 16 6 23 -3 8 -7 3 -11 -10z"/>
<path d="M340 450 c0 -5 7 -7 15 -4 8 4 15 8 15 10 0 2 -7 4 -15 4 -8 0 -15
-4 -15 -10z"/>
<path d="M116 437 c3 -8 11 -14 19 -14 20 0 19 4 -5 17 -15 8 -18 8 -14 -3z"/>
<path d="M350 430 c-9 -6 -10 -10 -3 -10 6 0 15 5 18 10 8 12 4 12 -15 0z"/>
<path d="M383 426 c3 -8 1 -17 -6 -20 -7 -2 -5 -5 4 -5 17 -1 32 22 22 33 -12
12 -25 6 -20 -8z"/>
<path d="M206 418 c-111 -24 -178 -155 -130 -251 47 -93 138 -134 226 -101 23
9 51 16 60 17 9 1 15 3 13 5 -2 2 8 20 21 40 14 19 27 47 31 61 3 14 10 32 16
39 7 9 7 16 -1 24 -7 7 -12 19 -12 28 0 29 -52 98 -89 118 -47 25 -87 31 -135
20z m14 -20 c0 -9 4 -8 10 2 8 12 10 8 11 -15 2 -29 2 -29 6 -3 3 19 10 26 24
25 10 -1 19 -8 20 -17 0 -10 2 -11 6 -2 9 22 25 13 18 -10 -7 -23 -7 -23 9 -3
13 18 15 18 16 3 0 -10 6 -15 13 -12 14 5 50 -38 61 -73 6 -18 2 -22 -31 -27
-21 -3 -54 -8 -73 -11 -33 -6 -36 -4 -48 27 l-13 33 -17 -32 c-11 -25 -22 -33
-41 -33 -36 0 -61 17 -42 29 11 7 11 9 0 13 -8 3 -11 8 -7 12 3 4 17 3 30 -4
21 -10 21 -10 6 3 -10 8 -18 22 -18 31 0 20 -19 21 -26 1 -4 -8 -13 -15 -21
-15 -10 0 -13 -7 -8 -22 4 -16 3 -19 -3 -10 -12 17 -21 -5 -23 -51 -1 -19 -3
-25 -6 -14 -9 34 7 83 36 116 16 18 34 30 40 27 7 -5 8 -1 4 10 -5 14 -3 16
11 11 10 -4 15 -3 11 3 -9 14 9 12 24 -2 10 -11 11 -10 6 5 -4 10 -2 17 4 17
6 0 11 -6 11 -12z m-45 -164 c19 -12 28 -13 45 -4 17 9 29 9 50 0 21 -9 33 -9
50 0 12 6 24 9 28 6 3 -3 0 -6 -6 -6 -7 0 -12 -4 -12 -9 0 -5 10 -7 23 -4 18
4 19 3 7 -7 -12 -9 -7 -10 25 -6 l40 6 -40 -16 c-36 -14 -43 -14 -70 1 -42 21
-106 22 -200 1 l-30 -6 28 11 c15 6 25 15 22 20 -4 5 2 6 12 3 16 -5 16 -4 -1
10 -26 21 -3 21 29 0z m45 -61 c-11 -14 -20 -34 -20 -44 0 -11 -7 -19 -15 -19
-24 0 -18 48 10 76 32 32 53 22 25 -13z m-59 -16 c-12 -30 -31 -36 -31 -10 0
19 33 59 38 45 1 -5 -2 -21 -7 -35z m108 15 c-10 -14 -19 -37 -19 -53 0 -21
-4 -27 -15 -23 -32 13 -1 104 34 101 19 -1 19 -1 0 -25z m141 11 c0 -5 -4 -14
-9 -22 -8 -13 -12 -13 -27 -1 -15 14 -15 15 7 21 13 4 25 7 27 8 1 1 2 -2 2
-6z m-110 -39 c-16 -36 -30 -44 -30 -18 0 23 17 51 32 51 11 0 11 -7 -2 -33z
m42 14 c-7 -7 -12 -20 -12 -30 0 -10 -4 -18 -10 -18 -5 0 -10 5 -10 11 0 18
20 49 32 49 9 0 9 -3 0 -12z m38 -18 c0 -5 -7 -10 -15 -10 -8 0 -15 5 -15 10
0 6 7 10 15 10 8 0 15 -4 15 -10z"/>
<path d="M305 300 c-3 -5 -2 -10 4 -10 5 0 13 5 16 10 3 6 2 10 -4 10 -5 0
-13 -4 -16 -10z"/>
<path d="M80 417 c0 -2 6 -10 14 -16 11 -9 16 -9 22 1 4 7 4 10 -1 6 -4 -4
-14 -3 -22 3 -7 6 -13 9 -13 6z"/>
<path d="M413 394 c-8 -4 -7 -11 5 -25 18 -21 42 -26 42 -8 0 5 -5 7 -11 3 -6
-3 -15 0 -20 7 -5 8 -3 17 4 21 13 8 -1 9 -20 2z"/>
<path d="M50 387 c0 -2 6 -10 14 -16 11 -9 16 -9 22 1 4 7 4 10 -1 6 -4 -4
-14 -3 -22 3 -7 6 -13 9 -13 6z"/>
<path d="M27 356 c-4 -10 -3 -15 2 -11 5 3 11 -1 14 -7 3 -10 8 -10 18 1 8 8
9 11 2 7 -6 -3 -16 1 -21 10 -8 15 -10 15 -15 0z"/>
<path d="M440 330 c0 -5 7 -7 15 -4 8 4 15 8 15 10 0 2 -7 4 -15 4 -8 0 -15
-4 -15 -10z"/>
<path d="M10 305 c0 -8 9 -15 20 -15 11 0 20 7 20 15 0 8 -9 15 -20 15 -11 0
-20 -7 -20 -15z"/>
<path d="M460 306 c0 -2 7 -6 15 -10 8 -3 15 -1 15 4 0 6 -7 10 -15 10 -8 0
-15 -2 -15 -4z"/>
<path d="M11 234 c0 -11 3 -14 6 -6 3 7 2 16 -1 19 -3 4 -6 -2 -5 -13z"/>
<path d="M35 241 c-3 -5 -1 -12 5 -16 5 -3 10 1 10 9 0 18 -6 21 -15 7z"/>
<path d="M460 239 c0 -5 5 -7 10 -4 6 3 10 8 10 11 0 2 -4 4 -10 4 -5 0 -10
-5 -10 -11z"/>
<path d="M93 75 c-3 -9 -3 -18 -1 -21 3 -3 8 4 11 16 6 23 -1 27 -10 5z"/>
<path d="M393 65 c0 -8 4 -12 9 -9 4 3 8 9 8 15 0 5 -4 9 -8 9 -5 0 -9 -7 -9
-15z"/>
<path d="M130 49 c0 -5 5 -7 10 -4 6 3 10 8 10 11 0 2 -4 4 -10 4 -5 0 -10 -5
-10 -11z"/>
<path d="M162 33 c2 -10 10 -18 18 -18 22 0 18 29 -3 33 -14 3 -18 -1 -15 -15z
m28 -3 c0 -5 -4 -10 -10 -10 -5 0 -10 5 -10 10 0 6 5 10 10 10 6 0 10 -4 10
-10z"/>
<path d="M310 29 c0 -17 3 -19 13 -10 8 6 18 7 23 3 4 -4 2 1 -5 11 -18 23
-31 22 -31 -4z"/>
<path d="M210 26 c0 -10 4 -15 9 -12 5 4 12 0 14 -6 4 -8 6 -9 6 -2 1 6 -6 17
-14 24 -12 10 -15 9 -15 -4z"/>
<path d="M261 18 c0 -13 3 -17 6 -10 2 6 10 9 16 5 7 -4 6 1 -2 10 -18 22 -21
21 -20 -5z"/>
</g>
</svg>
